<?xml version="1.0" standalone="no"?>
<!DOCTYPE svg PUBLIC "-//W3C//DTD SVG 20010904//EN"
 "http://www.w3.org/TR/2001/REC-SVG-20010904/DTD/svg10.dtd">
<svg version="1.0" xmlns="http://www.w3.org/2000/svg"
 width="2262.000000pt" height="2262.000000pt" viewBox="0 0 2262.000000 2262.000000"
 preserveAspectRatio="xMidYMid meet">
<metadata>
Created by potrace 1.14, written by Peter Selinger 2001-2017
</metadata>
<g transform="translate(0.000000,2262.000000) scale(0.100000,-0.100000)"
fill="#000000" stroke="none">
<path d="M13176 22585 c-14 -13 -26 -25 -26 -27 0 -27 -56 -312 -79 -399 -244
-946 -839 -1783 -1760 -2478 -597 -449 -1217 -777 -1903 -1005 -432 -143 -832
-224 -1983 -401 -1139 -175 -1679 -287 -2235 -462 -529 -166 -1047 -409 -1387
-650 -693 -490 -1172 -1201 -1308 -1938 -100 -544 -26 -1053 248 -1705 310
-737 886 -1528 1522 -2087 135 -118 317 -263 332 -263 5 0 44 36 88 81 240
242 530 429 890 572 534 213 1146 296 2180 297 802 1 1515 33 3190 145 1388
93 1836 117 2480 135 462 13 2083 12 2250 -1 326 -25 569 -89 727 -190 26 -17
51 -28 56 -25 17 10 128 178 192 289 465 811 586 1956 319 3032 -130 523 -350
977 -667 1375 -103 129 -344 369 -472 470 -137 108 -326 233 -470 308 -939
494 -2035 369 -2692 -306 l-107 -109 23 61 c78 204 207 464 441 886 349 629
491 948 579 1296 197 785 138 1652 -193 2854 -60 218 -67 236 -95 255 -34 24
-109 19 -140 -10z"/>
<path d="M18230 12304 c-19 -3 -96 -11 -170 -20 -178 -20 -476 -69 -900 -148
-404 -76 -634 -112 -780 -124 -94 -8 -108 -7 -132 10 -201 139 -624 199 -1203
169 -121 -6 -461 -18 -755 -26 -1023 -28 -1534 -65 -3270 -235 -1421 -139
-1983 -183 -2780 -215 -908 -36 -1233 -66 -1620 -151 -570 -125 -1055 -372
-1398 -713 -416 -414 -583 -917 -558 -1681 8 -225 278 -4980 301 -5295 112
-1522 412 -2403 1029 -3021 203 -202 397 -342 656 -473 373 -189 775 -298
1300 -353 170 -18 906 -18 1095 0 809 76 1313 165 2840 502 1106 244 1525 326
2195 425 601 89 919 151 1194 230 568 163 1014 418 1328 761 359 392 509 867
468 1484 -18 273 -44 449 -164 1100 -55 298 -76 476 -76 635 0 504 182 812
569 965 91 36 236 69 481 111 129 22 278 51 330 64 625 156 1176 630 1518
1303 213 420 343 860 413 1395 27 205 37 697 20 910 -44 533 -175 1002 -405
1455 -211 414 -467 698 -760 842 -164 81 -220 92 -496 95 -129 2 -251 1 -270
-1z m-515 -1874 c151 -32 232 -74 330 -173 95 -95 150 -185 206 -332 101 -267
144 -582 156 -1125 11 -527 -36 -742 -196 -900 -125 -124 -267 -173 -550 -190
-91 -6 -215 -15 -276 -20 -205 -18 -334 -7 -456 39 -229 87 -322 379 -349
1093 -15 405 -35 490 -203 863 -142 315 -191 479 -185 616 l3 64 100 7 c55 4
233 21 395 38 449 47 479 49 710 45 170 -3 236 -8 315 -25z m-5355 -629 c475
-160 751 -599 851 -1351 7 -50 15 -384 20 -820 5 -404 12 -845 15 -979 8 -345
-16 -559 -91 -788 -155 -473 -477 -686 -958 -634 -529 58 -816 341 -977 963
-21 84 -58 250 -80 368 -23 118 -72 361 -110 540 -113 530 -143 744 -143 1025
0 269 31 425 119 595 24 47 65 109 91 139 47 54 137 131 154 131 5 0 10 -78
11 -172 l3 -173 13 125 c52 490 190 802 420 953 140 92 239 118 432 113 121
-3 145 -6 230 -35z m-3937 -101 c227 -58 458 -228 601 -443 103 -155 197 -391
250 -627 60 -272 78 -559 69 -1156 -5 -342 -3 -474 12 -716 15 -252 16 -322 7
-466 -45 -660 -254 -1029 -652 -1154 -68 -21 -94 -23 -265 -23 -206 0 -275 9
-413 56 -149 50 -280 134 -381 245 -194 212 -305 511 -416 1124 -15 80 -53
267 -85 415 -113 522 -139 694 -147 980 -6 242 8 377 58 529 52 163 153 310
266 387 l43 30 1 -108 c0 -59 4 -128 8 -153 6 -42 7 -39 15 45 17 201 76 453
142 602 41 93 129 217 202 283 99 92 238 153 392 173 64 9 217 -3 293 -23z"/>
</g>
</svg>
